<svg xmlns="http://www.w3.org/2000/svg" viewBox="0 0 1200 300" role="img" aria-labelledby="title description">
  <title id="title">How Kora works in three steps</title>
  <desc id="description">Three connected illustrations show speaking to Kora, Kora coordinating a route and delivery work, and the driver continuing safely.</desc>
  <rect width="1200" height="300" rx="34" fill="#07060B"/>
  <path d="M345 150h110M745 150h110" stroke="#4C1D95" stroke-width="8" stroke-linecap="round" stroke-dasharray="5 16"/>

  <g transform="translate(42 30)">
    <rect width="300" height="240" rx="28" fill="#0E0B18" stroke="#1D1834" stroke-width="2"/>
    <circle cx="150" cy="120" r="70" fill="#151126"/>
    <rect x="132" y="72" width="36" height="82" rx="18" fill="#C4B5FD"/>
    <path d="M111 129c0 29 17 47 39 47s39-18 39-47M150 176v27M121 204h58" fill="none" stroke="#8B5CF6" stroke-width="10" stroke-linecap="round"/>
    <path d="M91 86c-15 17-15 51 0 68M209 86c15 17 15 51 0 68" fill="none" stroke="#C4B5FD" stroke-width="8" stroke-linecap="round"/>
  </g>

  <g transform="translate(450 30)">
    <rect width="300" height="240" rx="28" fill="#0E0B18" stroke="#1D1834" stroke-width="2"/>
    <path d="M52 169c44-78 91-96 135-40s66 40 75-27" fill="none" stroke="#8B5CF6" stroke-width="12" stroke-linecap="round"/>
    <g fill="#07060B" stroke="#C4B5FD" stroke-width="8">
      <circle cx="62" cy="157" r="17"/>
      <circle cx="181" cy="124" r="17"/>
      <circle cx="260" cy="102" r="17"/>
    </g>
    <path d="M121 70h59l28 28-28 28h-59z" fill="#4C1D95" stroke="#C4B5FD" stroke-width="6" stroke-linejoin="round"/>
  </g>

  <g transform="translate(858 30)">
    <rect width="300" height="240" rx="28" fill="#0E0B18" stroke="#1D1834" stroke-width="2"/>
    <circle cx="150" cy="120" r="72" fill="#151126"/>
    <circle cx="111" cy="162" r="30" fill="#07060B" stroke="#C4B5FD" stroke-width="8"/>
    <circle cx="205" cy="162" r="30" fill="#07060B" stroke="#C4B5FD" stroke-width="8"/>
    <path d="M85 153h137l-28-60h-61l-31 60M142 93l18-34h44" fill="none" stroke="#8B5CF6" stroke-width="12" stroke-linecap="round" stroke-linejoin="round"/>
    <path d="M116 88l25 23 48-48" fill="none" stroke="#C4B5FD" stroke-width="12" stroke-linecap="round" stroke-linejoin="round"/>
  </g>
</svg>
